# 3ds Max Wavefront OBJ Exporter v0.99 - (c)2007 guruware
# File Created: 19.11.2020 21:36:04

#
# object eye_right
#

v  -0.3500 0.2196 -0.3500
v  -0.3500 0.1919 -0.4169
v  -0.3973 0.1919 -0.3973
v  -0.4169 0.1919 -0.3500
v  -0.3973 0.1919 -0.3027
v  -0.3500 0.1919 -0.2831
v  -0.3027 0.1919 -0.3027
v  -0.2831 0.1919 -0.3500
v  -0.3027 0.1919 -0.3973
v  -0.3500 0.1250 -0.4446
v  -0.4169 0.1250 -0.4169
v  -0.4446 0.1250 -0.3500
v  -0.4169 0.1250 -0.2831
v  -0.3500 0.1250 -0.2554
v  -0.2831 0.1250 -0.2831
v  -0.2554 0.1250 -0.3500
v  -0.2831 0.1250 -0.4169
v  -0.3500 0.0581 -0.4169
v  -0.3973 0.0581 -0.3973
v  -0.4169 0.0581 -0.3500
v  -0.3973 0.0581 -0.3027
v  -0.3500 0.0581 -0.2831
v  -0.3027 0.0581 -0.3027
v  -0.2831 0.0581 -0.3500
v  -0.3027 0.0581 -0.3973
v  -0.3500 0.0304 -0.3500
# 26 vertices

vn -0.0000 1.0000 -0.0000
vn 0.0000 0.6630 -0.7486
vn -0.5294 0.6630 -0.5294
vn -0.7486 0.6630 0.0000
vn -0.5294 0.6630 0.5294
vn 0.0000 0.6630 0.7486
vn 0.5294 0.6630 0.5294
vn 0.7486 0.6630 0.0000
vn 0.5294 0.6630 -0.5294
vn 0.0000 0.0000 -1.0000
vn -0.7071 -0.0000 -0.7071
vn -1.0000 0.0000 0.0000
vn -0.7071 0.0000 0.7071
vn -0.0000 0.0000 1.0000
vn 0.7071 -0.0000 0.7071
vn 1.0000 -0.0000 0.0000
vn 0.7071 -0.0000 -0.7071
vn 0.0000 -0.6630 -0.7486
vn -0.5294 -0.6630 -0.5294
vn -0.7486 -0.6630 0.0000
vn -0.5294 -0.6630 0.5294
vn 0.0000 -0.6630 0.7486
vn 0.5294 -0.6630 0.5294
vn 0.7486 -0.6630 0.0000
vn 0.5294 -0.6630 -0.5294
vn -0.0000 -1.0000 -0.0000
# 26 vertex normals

o eye_right
g eye_right
f 1//1 2//2 3//3 
f 1//1 3//3 4//4 
f 1//1 4//4 5//5 
f 1//1 5//5 6//6 
f 1//1 6//6 7//7 
f 1//1 7//7 8//8 
f 1//1 8//8 9//9 
f 1//1 9//9 2//2 
f 2//2 10//10 11//11 3//3 
f 3//3 11//11 12//12 4//4 
f 4//4 12//12 13//13 5//5 
f 5//5 13//13 14//14 6//6 
f 6//6 14//14 15//15 7//7 
f 7//7 15//15 16//16 8//8 
f 8//8 16//16 17//17 9//9 
f 9//9 17//17 10//10 2//2 
f 10//10 18//18 19//19 11//11 
f 11//11 19//19 20//20 12//12 
f 12//12 20//20 21//21 13//13 
f 13//13 21//21 22//22 14//14 
f 14//14 22//22 23//23 15//15 
f 15//15 23//23 24//24 16//16 
f 16//16 24//24 25//25 17//17 
f 17//17 25//25 18//18 10//10 
f 26//26 19//19 18//18 
f 26//26 20//20 19//19 
f 26//26 21//21 20//20 
f 26//26 22//22 21//21 
f 26//26 23//23 22//22 
f 26//26 24//24 23//23 
f 26//26 25//25 24//24 
f 26//26 18//18 25//25 
# 16 polygons - 16 triangles

#
# object head_ball
#

v  0.0000 0.5023 -0.0000
v  -0.0000 0.4641 0.1922
v  -0.0736 0.4641 0.1776
v  -0.1359 0.4641 0.1359
v  -0.1776 0.4641 0.0736
v  -0.1922 0.4641 -0.0000
v  0.1922 0.4641 -0.0000
v  0.1776 0.4641 0.0736
v  0.1359 0.4641 0.1359
v  0.0736 0.4641 0.1776
v  -0.0000 0.3552 0.3552
v  -0.1359 0.3552 0.3281
v  -0.2511 0.3552 0.2511
v  -0.3281 0.3552 0.1359
v  -0.3552 0.3552 -0.0000
v  0.3552 0.3552 -0.0000
v  0.3281 0.3552 0.1359
v  0.2511 0.3552 0.2511
v  0.1359 0.3552 0.3281
v  -0.0000 0.1922 0.4641
v  -0.1776 0.1922 0.4287
v  -0.3281 0.1922 0.3281
v  -0.4287 0.1922 0.1776
v  -0.4641 0.1922 -0.0000
v  0.4641 0.1922 -0.0000
v  0.4287 0.1922 0.1776
v  0.3281 0.1922 0.3281
v  0.1776 0.1922 0.4287
v  -0.0000 -0.0000 0.5023
v  -0.3160 0.0796 0.4922
v  -0.2471 0.1357 0.4427
v  -0.3877 0.0240 0.3552
v  -0.4325 0.0070 0.2737
v  -0.4641 -0.0100 0.1922
v  -0.4832 -0.0146 0.0961
v  -0.5023 -0.0193 -0.0000
v  0.5023 -0.0000 -0.0000
v  0.4641 -0.0000 0.1922
v  0.3552 -0.0000 0.3552
v  0.1922 -0.0000 0.4641
v  0.4641 -0.1922 -0.0000
v  0.4287 -0.1922 0.1776
v  0.3281 -0.1922 0.3281
v  0.1776 -0.1922 0.4287
v  -0.0000 -0.1922 0.4641
v  -0.0000 -0.3552 0.3552
v  -0.1359 -0.3552 0.3281
v  -0.3380 0.0283 0.4569
v  -0.2511 -0.3552 0.2511
v  -0.3972 -0.0318 0.3281
v  -0.3616 -0.0018 0.4021
v  -0.3281 -0.3552 0.1359
v  -0.4653 -0.0766 0.1776
v  -0.4379 -0.0542 0.2529
v  -0.3552 -0.3552 -0.0000
v  -0.5007 -0.0858 -0.0000
v  -0.4830 -0.0812 0.0888
v  0.3552 -0.3552 -0.0000
v  0.3281 -0.3552 0.1359
v  0.2511 -0.3552 0.2511
v  0.1359 -0.3552 0.3281
v  -0.0000 -0.4641 0.1922
v  -0.0736 -0.4641 0.1776
v  -0.1359 -0.4641 0.1359
v  -0.1776 -0.4641 0.0736
v  -0.1922 -0.4641 -0.0000
v  0.1922 -0.4641 -0.0000
v  0.1776 -0.4641 0.0736
v  0.1359 -0.4641 0.1359
v  0.0736 -0.4641 0.1776
v  0.0000 -0.5023 -0.0000
v  -0.3263 0.0539 0.4746
v  -0.3408 0.0161 0.3940
v  -0.3741 -0.0039 0.3417
v  -0.3512 0.0403 0.4096
v  -0.4169 -0.0236 0.2633
v  -0.4464 -0.0433 0.1849
v  -0.4648 -0.0479 0.0925
v  -0.4832 -0.0525 -0.0000
v  -0.2873 0.1154 0.3756
v  -0.0736 0.4641 -0.1776
v  -0.0000 0.4641 -0.1922
v  -0.1359 0.4641 -0.1359
v  -0.1776 0.4641 -0.0736
v  0.1776 0.4641 -0.0736
v  0.1359 0.4641 -0.1359
v  0.0736 0.4641 -0.1776
v  -0.1359 0.3552 -0.3281
v  -0.0000 0.3552 -0.3552
v  -0.2511 0.3552 -0.2511
v  -0.3281 0.3552 -0.1359
v  0.3281 0.3552 -0.1359
v  0.2511 0.3552 -0.2511
v  0.1359 0.3552 -0.3281
v  -0.1776 0.1922 -0.4287
v  -0.0000 0.1922 -0.4641
v  -0.3281 0.1922 -0.3281
v  -0.4287 0.1922 -0.1776
v  0.4287 0.1922 -0.1776
v  0.3281 0.1922 -0.3281
v  0.1776 0.1922 -0.4287
v  -0.2471 0.1357 -0.4427
v  -0.3160 0.0796 -0.4922
v  -0.0000 -0.0000 -0.5023
v  -0.4641 -0.0100 -0.1922
v  -0.4325 0.0070 -0.2737
v  -0.3877 0.0240 -0.3552
v  -0.4832 -0.0146 -0.0961
v  0.4641 -0.0000 -0.1922
v  0.3552 -0.0000 -0.3552
v  0.1922 -0.0000 -0.4641
v  0.4287 -0.1922 -0.1776
v  0.3281 -0.1922 -0.3281
v  0.1776 -0.1922 -0.4287
v  -0.0000 -0.1922 -0.4641
v  -0.3380 0.0283 -0.4569
v  -0.1359 -0.3552 -0.3281
v  -0.0000 -0.3552 -0.3552
v  -0.3616 -0.0018 -0.4021
v  -0.3972 -0.0318 -0.3281
v  -0.2511 -0.3552 -0.2511
v  -0.4379 -0.0542 -0.2529
v  -0.4653 -0.0766 -0.1776
v  -0.3281 -0.3552 -0.1359
v  -0.4830 -0.0812 -0.0888
v  0.3281 -0.3552 -0.1359
v  0.2511 -0.3552 -0.2511
v  0.1359 -0.3552 -0.3281
v  -0.0736 -0.4641 -0.1776
v  -0.0000 -0.4641 -0.1922
v  -0.1359 -0.4641 -0.1359
v  -0.1776 -0.4641 -0.0736
v  0.1776 -0.4641 -0.0736
v  0.1359 -0.4641 -0.1359
v  0.0736 -0.4641 -0.1776
v  -0.3263 0.0539 -0.4746
v  -0.3408 0.0161 -0.3940
v  -0.3741 -0.0039 -0.3417
v  -0.3512 0.0403 -0.4096
v  -0.4169 -0.0236 -0.2633
v  -0.4464 -0.0433 -0.1849
v  -0.4648 -0.0479 -0.0925
v  -0.2873 0.1154 -0.3756
# 143 vertices

vn -0.0000 1.0000 -0.0000
vn -0.0000 0.9152 0.4031
vn -0.1543 0.9152 0.3724
vn -0.2850 0.9152 0.2850
vn -0.3724 0.9152 0.1543
vn -0.4031 0.9152 0.0000
vn 0.4031 0.9152 -0.0000
vn 0.3724 0.9152 0.1543
vn 0.2850 0.9152 0.2850
vn 0.1543 0.9152 0.3724
vn -0.0000 0.6952 0.7189
vn -0.2751 0.6952 0.6641
vn -0.5083 0.6952 0.5083
vn -0.6641 0.6952 0.2751
vn -0.7189 0.6952 -0.0000
vn 0.7189 0.6952 0.0000
vn 0.6641 0.6952 0.2751
vn 0.5083 0.6952 0.5083
vn 0.2751 0.6952 0.6641
vn -0.0000 0.3744 0.9273
vn -0.3224 0.5184 0.7920
vn -0.6210 0.4297 0.6555
vn -0.8584 0.3699 0.3555
vn -0.9306 0.3661 0.0000
vn 0.9273 0.3744 -0.0000
vn 0.8567 0.3744 0.3549
vn 0.6557 0.3744 0.6557
vn 0.3549 0.3744 0.8567
vn 0.0772 -0.0155 0.9969
vn -0.5385 0.3019 0.7867
vn 1.0000 0.0000 -0.0000
vn -0.8108 -0.0737 0.5806
vn -0.8173 0.4998 0.2866
vn -0.9373 -0.1793 0.2988
vn -0.9652 -0.1659 0.2022
vn -0.9849 -0.1731 0.0000
vn 0.9239 -0.0000 0.3827
vn 0.7071 0.0000 0.7071
vn 0.3827 0.0000 0.9239
vn 0.9273 -0.3744 -0.0000
vn 0.8567 -0.3744 0.3549
vn 0.6557 -0.3744 0.6557
vn 0.3549 -0.3744 0.8567
vn -0.0555 -0.4056 0.9123
vn -0.0000 -0.6952 0.7189
vn -0.2731 -0.6449 0.7138
vn -0.7557 -0.1800 0.6296
vn -0.5361 -0.6412 0.5491
vn -0.8884 0.0392 0.4574
vn 0.1063 0.8827 -0.4578
vn -0.7011 -0.6498 0.2937
vn -0.9602 -0.0287 0.2779
vn -0.7973 -0.4044 0.4479
vn -0.7525 -0.6586 -0.0000
vn -0.9998 -0.0194 -0.0000
vn -0.9819 0.0002 0.1894
vn 0.7189 -0.6952 -0.0000
vn 0.6641 -0.6952 0.2751
vn 0.5083 -0.6952 0.5083
vn 0.2751 -0.6952 0.6641
vn -0.0000 -0.9152 0.4031
vn -0.1543 -0.9152 0.3724
vn -0.2850 -0.9152 0.2850
vn -0.3724 -0.9152 0.1543
vn -0.4031 -0.9152 0.0000
vn 0.4031 -0.9152 -0.0000
vn 0.3724 -0.9152 0.1543
vn 0.2850 -0.9152 0.2850
vn 0.1543 -0.9152 0.3724
vn -0.0000 -1.0000 -0.0000
vn -0.5912 0.6073 -0.5308
vn -0.9361 0.1187 0.3310
vn -0.8626 -0.0155 0.5057
vn -0.8768 0.0182 0.4805
vn -0.9007 -0.0327 0.4331
vn -0.9622 0.0029 0.2722
vn -0.9805 -0.0163 0.1958
vn -1.0000 -0.0034 -0.0000
vn -0.6399 0.5356 0.5510
vn -0.1543 0.9152 -0.3724
vn -0.0000 0.9152 -0.4031
vn -0.2850 0.9152 -0.2850
vn -0.3724 0.9152 -0.1543
vn 0.3724 0.9152 -0.1543
vn 0.2850 0.9152 -0.2850
vn 0.1543 0.9152 -0.3724
vn -0.2751 0.6952 -0.6641
vn -0.0000 0.6952 -0.7189
vn -0.5083 0.6952 -0.5083
vn -0.6641 0.6952 -0.2751
vn 0.6641 0.6952 -0.2751
vn 0.5083 0.6952 -0.5083
vn 0.2751 0.6952 -0.6641
vn -0.3224 0.5184 -0.7920
vn -0.0000 0.3744 -0.9273
vn -0.6210 0.4297 -0.6555
vn -0.8584 0.3699 -0.3555
vn 0.8567 0.3744 -0.3549
vn 0.6557 0.3744 -0.6557
vn 0.3549 0.3744 -0.8567
vn -0.5385 0.3019 -0.7867
vn 0.0772 -0.0155 -0.9969
vn -0.9373 -0.1793 -0.2988
vn -0.8173 0.4998 -0.2866
vn -0.8108 -0.0737 -0.5806
vn -0.9652 -0.1659 -0.2022
vn 0.9239 -0.0000 -0.3827
vn 0.7071 0.0000 -0.7071
vn 0.3827 0.0000 -0.9239
vn 0.8567 -0.3744 -0.3549
vn 0.6557 -0.3744 -0.6557
vn 0.3549 -0.3744 -0.8567
vn -0.0555 -0.4056 -0.9123
vn -0.7557 -0.1800 -0.6296
vn -0.2731 -0.6449 -0.7138
vn -0.0000 -0.6952 -0.7189
vn 0.1063 0.8827 0.4578
vn -0.8884 0.0392 -0.4574
vn -0.5361 -0.6412 -0.5491
vn -0.7973 -0.4044 -0.4479
vn -0.9602 -0.0287 -0.2779
vn -0.7011 -0.6498 -0.2937
vn -0.9819 0.0002 -0.1894
vn 0.6641 -0.6952 -0.2751
vn 0.5083 -0.6952 -0.5083
vn 0.2751 -0.6952 -0.6641
vn -0.1543 -0.9152 -0.3724
vn -0.0000 -0.9152 -0.4031
vn -0.2850 -0.9152 -0.2850
vn -0.3724 -0.9152 -0.1543
vn 0.3724 -0.9152 -0.1543
vn 0.2850 -0.9152 -0.2850
vn 0.1543 -0.9152 -0.3724
vn -0.5912 0.6073 0.5308
vn -0.9361 0.1187 -0.3310
vn -0.8626 -0.0155 -0.5057
vn -0.8768 0.0182 -0.4805
vn -0.9007 -0.0327 -0.4331
vn -0.9622 0.0029 -0.2722
vn -0.9805 -0.0163 -0.1958
vn -0.6399 0.5356 -0.5510
# 141 vertex normals

o head_ball
g head_ball
f 29//29 28//28 27//27 
f 30//30 29//29 27//27 
f 31//31 30//30 27//27 
f 32//32 31//31 27//27 
f 34//34 33//33 27//27 
f 35//35 34//34 27//27 
f 36//36 35//35 27//27 
f 28//28 36//36 27//27 
f 29//29 38//38 37//37 28//28 
f 30//30 39//39 38//38 29//29 
f 31//31 40//40 39//39 30//30 
f 32//32 41//41 40//40 31//31 
f 34//34 43//43 42//42 33//33 
f 35//35 44//44 43//43 34//34 
f 36//36 45//45 44//44 35//35 
f 28//28 37//37 45//45 36//36 
f 38//38 47//47 46//46 37//37 
f 39//39 48//48 47//47 38//38 
f 40//40 49//49 48//48 39//39 
f 41//41 50//50 49//49 40//40 
f 43//43 52//52 51//51 42//42 
f 44//44 53//53 52//52 43//43 
f 45//45 54//54 53//53 44//44 
f 37//37 46//46 54//54 45//45 
f 47//47 57//57 56//56 55//55 46//46 
f 49//49 60//60 59//59 58//58 48//48 
f 50//50 62//62 61//61 60//60 49//49 
f 52//52 64//63 63//57 51//51 
f 53//53 65//64 64//63 52//52 
f 54//54 66//65 65//64 53//53 
f 46//46 55//55 66//65 54//54 
f 64//63 68//67 67//66 63//57 
f 65//64 69//68 68//67 64//63 
f 66//65 70//69 69//68 65//64 
f 55//55 71//70 70//69 66//65 
f 74//73 73//72 72//71 71//70 
f 77//76 76//75 75//74 73//72 74//73 
f 80//79 79//78 78//77 75//74 76//75 
f 83//82 82//81 81//80 78//77 79//78 
f 68//67 85//84 84//83 67//66 
f 69//68 86//85 85//84 68//67 
f 70//69 87//86 86//85 69//68 
f 71//70 72//71 87//86 70//69 
f 73//72 89//88 88//87 72//71 
f 75//74 90//89 89//88 73//72 
f 78//77 91//90 90//89 75//74 
f 81//80 92//91 91//90 78//77 
f 85//84 94//93 93//92 84//83 
f 86//85 95//94 94//93 85//84 
f 87//86 96//95 95//94 86//85 
f 72//71 88//87 96//95 87//86 
f 88//87 89//88 97//96 
f 89//88 90//89 97//96 
f 90//89 91//90 97//96 
f 91//90 92//91 97//96 
f 93//92 94//93 97//96 
f 94//93 95//94 97//96 
f 95//94 96//95 97//96 
f 96//95 88//87 97//96 
f 99//98 77//76 74//73 98//97 
f 99//98 100//99 76//75 77//76 
f 99//98 101//100 58//58 100//99 
f 99//98 98//97 56//56 101//100 
f 102//101 80//79 76//75 100//99 
f 102//101 103//102 79//78 80//79 
f 102//101 59//59 60//60 103//102 
f 102//101 100//99 58//58 59//59 
f 104//103 83//82 79//78 103//102 
f 104//103 105//104 82//81 83//82 
f 104//103 61//61 62//62 105//104 
f 104//103 103//102 60//60 61//61 
f 55//55 56//56 98//97 74//73 71//70 
f 106//105 56//56 57//57 47//47 
f 106//105 101//100 56//56 
f 106//105 58//58 101//100 
f 106//105 48//48 58//58 
f 106//105 47//47 48//48 
f 108//107 107//106 27//27 
f 107//106 109//108 27//27 
f 109//108 110//109 27//27 
f 110//109 32//32 27//27 
f 33//33 111//110 27//27 
f 111//110 112//111 27//27 
f 112//111 113//112 27//27 
f 113//112 108//107 27//27 
f 115//114 114//113 107//106 108//107 
f 114//113 116//115 109//108 107//106 
f 116//115 117//116 110//109 109//108 
f 117//116 41//41 32//32 110//109 
f 42//42 118//117 111//110 33//33 
f 118//117 119//118 112//111 111//110 
f 119//118 120//119 113//112 112//111 
f 120//119 115//114 108//107 113//112 
f 122//121 121//120 114//113 115//114 
f 121//120 123//122 116//115 114//113 
f 123//122 124//123 117//116 116//115 
f 124//123 50//50 41//41 117//116 
f 51//51 125//124 118//117 42//42 
f 125//124 126//125 119//118 118//117 
f 126//125 127//126 120//119 119//118 
f 127//126 122//121 115//114 120//119 
f 130//128 129//127 128//57 121//120 122//121 
f 133//131 132//130 131//129 124//123 123//122 
f 131//129 134//132 62//62 50//50 124//123 
f 63//57 135//133 125//124 51//51 
f 135//133 136//134 126//125 125//124 
f 136//134 137//135 127//126 126//125 
f 137//135 130//128 122//121 127//126 
f 67//66 138//136 135//133 63//57 
f 138//136 139//137 136//134 135//133 
f 139//137 140//138 137//135 136//134 
f 140//138 141//139 130//128 137//135 
f 144//142 143//141 142//140 141//139 
f 143//141 147//145 146//144 145//143 142//140 
f 147//145 150//148 149//147 148//146 146//144 
f 150//148 81//80 82//81 151//149 149//147 
f 84//83 152//150 138//136 67//66 
f 152//150 153//151 139//137 138//136 
f 153//151 154//152 140//138 139//137 
f 154//152 144//142 141//139 140//138 
f 156//154 155//153 143//141 144//142 
f 155//153 157//155 147//145 143//141 
f 157//155 158//156 150//148 147//145 
f 158//156 92//91 81//80 150//148 
f 93//92 159//157 152//150 84//83 
f 159//157 160//158 153//151 152//150 
f 160//158 161//159 154//152 153//151 
f 161//159 156//154 144//142 154//152 
f 155//153 156//154 97//96 
f 157//155 155//153 97//96 
f 158//156 157//155 97//96 
f 92//91 158//156 97//96 
f 159//157 93//92 97//96 
f 160//158 159//157 97//96 
f 161//159 160//158 97//96 
f 156//154 161//159 97//96 
f 142//140 145//143 163//161 162//160 
f 146//144 164//162 163//161 145//143 
f 133//131 165//163 163//161 164//162 
f 129//127 162//160 163//161 165//163 
f 146//144 148//146 166//164 164//162 
f 149//147 167//165 166//164 148//146 
f 131//129 132//130 166//164 167//165 
f 133//131 164//162 166//164 132//130 
f 149//147 151//149 168//166 167//165 
f 82//81 105//104 168//166 151//149 
f 62//62 134//132 168//166 105//104 
f 131//129 167//165 168//166 134//132 
f 142//140 162//160 129//127 130//128 141//139 
f 128//57 129//127 169//167 121//120 
f 165//163 169//167 129//127 
f 133//131 169//167 165//163 
f 123//122 169//167 133//131 
f 121//120 169//167 123//122 
# 114 polygons - 40 triangles

#
# object eye_left
#

v  -0.3500 0.2196 0.3500
v  -0.3500 0.1919 0.2831
v  -0.3973 0.1919 0.3027
v  -0.4169 0.1919 0.3500
v  -0.3973 0.1919 0.3973
v  -0.3500 0.1919 0.4169
v  -0.3027 0.1919 0.3973
v  -0.2831 0.1919 0.3500
v  -0.3027 0.1919 0.3027
v  -0.3500 0.1250 0.2554
v  -0.4169 0.1250 0.2831
v  -0.4446 0.1250 0.3500
v  -0.4169 0.1250 0.4169
v  -0.3500 0.1250 0.4446
v  -0.2831 0.1250 0.4169
v  -0.2554 0.1250 0.3500
v  -0.2831 0.1250 0.2831
v  -0.3500 0.0581 0.2831
v  -0.3973 0.0581 0.3027
v  -0.4169 0.0581 0.3500
v  -0.3973 0.0581 0.3973
v  -0.3500 0.0581 0.4169
v  -0.3027 0.0581 0.3973
v  -0.2831 0.0581 0.3500
v  -0.3027 0.0581 0.3027
v  -0.3500 0.0304 0.3500
# 26 vertices

vn -0.0000 1.0000 -0.0000
vn 0.0000 0.6630 -0.7486
vn -0.5294 0.6630 -0.5294
vn -0.7486 0.6630 0.0000
vn -0.5294 0.6630 0.5294
vn 0.0000 0.6630 0.7486
vn 0.5294 0.6630 0.5294
vn 0.7486 0.6630 0.0000
vn 0.5294 0.6630 -0.5294
vn 0.0000 0.0000 -1.0000
vn -0.7071 -0.0000 -0.7071
vn -1.0000 0.0000 0.0000
vn -0.7071 0.0000 0.7071
vn -0.0000 0.0000 1.0000
vn 0.7071 -0.0000 0.7071
vn 1.0000 -0.0000 0.0000
vn 0.7071 -0.0000 -0.7071
vn 0.0000 -0.6630 -0.7486
vn -0.5294 -0.6630 -0.5294
vn -0.7486 -0.6630 0.0000
vn -0.5294 -0.6630 0.5294
vn 0.0000 -0.6630 0.7486
vn 0.5294 -0.6630 0.5294
vn 0.7486 -0.6630 0.0000
vn 0.5294 -0.6630 -0.5294
vn -0.0000 -1.0000 -0.0000
# 26 vertex normals

o eye_left
g eye_left
f 170//168 171//169 172//170 
f 170//168 172//170 173//171 
f 170//168 173//171 174//172 
f 170//168 174//172 175//173 
f 170//168 175//173 176//174 
f 170//168 176//174 177//175 
f 170//168 177//175 178//176 
f 170//168 178//176 171//169 
f 171//169 179//177 180//178 172//170 
f 172//170 180//178 181//179 173//171 
f 173//171 181//179 182//180 174//172 
f 174//172 182//180 183//181 175//173 
f 175//173 183//181 184//182 176//174 
f 176//174 184//182 185//183 177//175 
f 177//175 185//183 186//184 178//176 
f 178//176 186//184 179//177 171//169 
f 179//177 187//185 188//186 180//178 
f 180//178 188//186 189//187 181//179 
f 181//179 189//187 190//188 182//180 
f 182//180 190//188 191//189 183//181 
f 183//181 191//189 192//190 184//182 
f 184//182 192//190 193//191 185//183 
f 185//183 193//191 194//192 186//184 
f 186//184 194//192 187//185 179//177 
f 195//193 188//186 187//185 
f 195//193 189//187 188//186 
f 195//193 190//188 189//187 
f 195//193 191//189 190//188 
f 195//193 192//190 191//189 
f 195//193 193//191 192//190 
f 195//193 194//192 193//191 
f 195//193 187//185 194//192 
# 16 polygons - 16 triangles

